<?xml version="1.0" standalone="no"?><!DOCTYPE svg PUBLIC "-//W3C//DTD SVG 1.1//EN" "http://www.w3.org/Graphics/SVG/1.1/DTD/svg11.dtd"><svg t="1568944572988" class="icon" viewBox="0 0 1450 1024" version="1.1" xmlns="http://www.w3.org/2000/svg" p-id="4071" xmlns:xlink="http://www.w3.org/1999/xlink" width="283.203125" height="200"><defs><style type="text/css"></style></defs><path d="M1431.293716 51.79688A74.154018 74.154018 0 0 0 1380.264829 29.269077l-554.661813-20.991816-42.068965 89.08722 57.770161 167.763866-104.40442 190.803664 42.538295 153.598656 105.343078 131.838846 152.702664-135.764145a37.546338 37.546338 0 0 1 51.668881 2.047982l196.350282 204.371545a34.559698 34.559698 0 0 1 6.399944 38.740994 36.94901 36.94901 0 0 1-34.64503 20.479821l-538.064626-20.309156-26.837098 74.154018 29.141078 66.943414 618.533255 23.039799c19.498496 0.682661 38.271665-6.015947 52.564873-18.773169 14.335875-12.714555 22.741134-30.293068 23.466462-49.023571L1450.536215 102.399104a68.052738 68.052738 0 0 0-19.285165-50.559558z m-397.521855 387.409944c-60.628803-2.218647-107.817723-51.412883-105.513743-109.737707 2.346646-58.324823 53.460866-103.764425 114.089668-101.545778 60.586137 2.261314 107.817723 51.498216 105.513744 109.823039-2.346646 58.282157-53.460866 103.721759-114.089669 101.503112zM635.012684 926.285228l18.602504-77.737986-436.902844 28.88508a36.94901 36.94901 0 0 1-35.413024-19.455829 34.389032 34.389032 0 0 1 5.205288-38.868994l323.666501-357.671537a37.589004 37.589004 0 0 1 54.015528-1.194656l108.372385 108.713716-46.676925-115.966986 82.260614-200.104915-75.818004-160.169266L663.983097 0 68.14831 39.551654C27.743331 42.324963-2.677736 75.86067 0.180905 114.772329l60.458138 843.683285c1.279989 18.602504 10.197244 35.967685 24.874449 48.212911 14.634539 12.20256 33.791704 18.346506 53.076869 17.194516l532.006011-35.285024-35.583688-62.292789z" p-id="4072" fill="#dbdbdb"></path></svg>